<?xml version="1.0" encoding="UTF-8" standalone="no"?>
<!-- Created with Inkscape (http://www.inkscape.org/) -->

<svg
   width="259.80771mm"
   height="300mm"
   viewBox="0 0 259.80771 300"
   version="1.1"
   id="svg1"
   xmlns="http://www.w3.org/2000/svg"
   xmlns:svg="http://www.w3.org/2000/svg">
  <defs
     id="defs1" />
  <g
     id="g9"
     transform="matrix(0.95008542,0,0,0.95008542,-25.217916,14.974372)">
    <path
       id="path8"
       style="display:inline;fill:#c96000;fill-opacity:1;stroke:none;stroke-width:1.20363;stroke-opacity:1"
       d="M 69.242458,-122.42831 -67.486146,-43.487917 V 114.39237 l 136.728604,78.9404 136.728602,-78.9404 V -43.487917 Z m -0.193269,23.322083 116.084901,67.021746 V 101.95851 L 69.049189,168.98025 -47.035716,101.95851 V -32.084481 Z"
       transform="translate(94.028935,106.66723)" />
    <path
       id="path1"
       style="fill:#c96000;fill-opacity:1;stroke:none;stroke-width:1.37985;stroke-opacity:1"
       d="m 135.26171,42.11946 v 19.394063 h -20.91636 l -46.537572,80.605937 46.537572,80.60547 h 20.91636 v 19.39453 h 19.39407 v -19.39453 h 19.39261 v 19.39453 h 19.39406 v -19.39453 h 13.97823 l 17.44754,-30.21996 h -31.42577 -4.8e-4 -19.39358 -19.39261 -19.39407 l -29.09013,-50.38551 29.09013,-50.385984 h 19.39407 19.39261 19.39358 4.8e-4 31.42577 L 207.42068,61.513523 H 193.44245 V 42.11946 H 174.04839 V 61.513523 H 154.65578 V 42.11946 Z m 58.18074,49.614016 -4.8e-4,19.394544 h -19.39358 v 61.98288 h 19.39406 z m -49.9834,19.394544 -8.19734,14.19852 v 33.58536 l 8.19782,14.199 h 11.19625 v -61.98288 z" />
  </g>
</svg>
