<svg width="85" height="98" viewBox="0 0 85 98" fill="none" xmlns="http://www.w3.org/2000/svg">
<path d="M41.8681 0.164688C41.6721 0.248703 41.4621 0.388733 41.378 0.44474C41.14 0.640778 40.1458 1.2289 39.6277 1.46694C39.3617 1.59296 39.0816 1.789 39.0256 1.88702C38.9556 1.99905 38.8576 2.05505 38.7735 2.01305C38.7035 1.95704 38.6475 1.98504 38.6475 2.04105C38.6475 2.11107 38.3115 2.30711 37.9194 2.50314C37.5133 2.69918 37.0652 2.96523 36.9392 3.09126C36.7992 3.23129 36.5891 3.34331 36.4771 3.34331C36.3651 3.34331 36.169 3.45533 36.029 3.59535C35.889 3.73538 35.5529 3.94542 35.2869 4.04344C35.0208 4.15546 34.3907 4.47752 33.9006 4.77158C33.4245 5.06564 32.9624 5.30369 32.8924 5.30369C32.8224 5.30369 32.7664 5.3597 32.7664 5.44371C32.7664 5.51373 32.2343 5.83579 31.5761 6.14385C30.918 6.45191 30.3859 6.77397 30.3859 6.84399C30.3859 6.928 30.3159 6.98402 30.2319 6.98402C30.1339 6.98402 29.6858 7.22206 29.2097 7.53012C28.7336 7.82418 28.2155 8.10423 28.0475 8.16024C27.8654 8.21626 27.7254 8.32828 27.7254 8.39828C27.7254 8.48231 27.6554 8.49631 27.5854 8.4543C27.5013 8.41229 27.4033 8.4543 27.3613 8.56632C27.3193 8.69234 27.1233 8.81837 26.9132 8.87438C26.7032 8.91639 26.3111 9.11243 26.0451 9.28046C25.1629 9.85457 24.7848 10.0646 24.7008 10.0506C24.6448 10.0506 24.5608 10.1066 24.5188 10.1766C24.4067 10.3587 23.3705 10.9048 23.1465 10.9048C23.0485 10.9048 22.9645 10.9608 22.9645 11.0448C22.9645 11.1148 22.8664 11.1848 22.7544 11.1848C22.6424 11.1848 22.5444 11.2408 22.5444 11.3249C22.5444 11.3949 22.3904 11.4929 22.1943 11.5489C21.9983 11.5909 21.8442 11.6889 21.8442 11.7449C21.8442 11.8009 21.4242 12.067 20.9061 12.305C20.374 12.5571 19.5478 13.0332 19.0437 13.3553C17.9655 14.0694 17.0833 14.5455 16.8593 14.5455C16.7613 14.5455 16.6492 14.6435 16.6072 14.7695C16.5652 14.8815 16.4672 14.9516 16.3972 14.9096C16.3272 14.8535 16.2432 14.8675 16.2152 14.9376C16.1591 15.0776 13.9187 16.3658 13.7227 16.3658C13.6527 16.3658 13.5826 16.4219 13.5826 16.5059C13.5826 16.5759 13.2886 16.7579 12.9245 16.9259C12.5604 17.08 11.6643 17.5841 10.9221 18.0462C10.18 18.5083 9.2418 19.0124 8.84972 19.1804C8.45765 19.3484 8.09357 19.6005 8.05157 19.7405C7.99556 19.8805 7.92554 19.9925 7.86953 19.9645C7.74351 19.9225 5.82513 20.8887 5.76912 21.0147C5.74112 21.0848 5.6291 21.1268 5.51707 21.1268C5.40505 21.1268 5.32103 21.1828 5.32103 21.2668C5.32103 21.3368 5.22302 21.4068 5.11099 21.4068C4.99897 21.4068 4.90095 21.4628 4.90095 21.5328C4.90095 21.6029 4.38285 21.9109 3.73873 22.247C3.1086 22.569 2.31045 23.0031 1.97438 23.1992C1.63832 23.4092 1.07821 23.7453 0.714139 23.9413L0.0700136 24.3054L0.0280054 48.9782L0 73.651L0.588114 73.931C0.92418 74.0851 1.47029 74.3931 1.82035 74.6172C2.17042 74.8412 3.0666 75.3453 3.82274 75.7374C4.56489 76.1295 5.29303 76.5495 5.43306 76.6896C5.57308 76.8156 6.1752 77.1797 6.79132 77.4877C7.40744 77.7958 7.93954 78.0758 7.98155 78.1179C8.19159 78.3279 9.00375 78.846 9.32581 78.958C9.52185 79.042 10.0119 79.3081 10.418 79.5601C11.6783 80.3863 11.9583 80.5403 12.9525 81.0584C14.1007 81.6605 16.4252 83.0048 16.5232 83.1448C16.5652 83.1868 16.9993 83.4249 17.5034 83.6769C18.6096 84.223 19.2397 84.5871 19.2958 84.7411C19.3238 84.7971 19.7999 85.0632 20.346 85.3433C21.7182 86.0294 22.5444 86.5195 22.5444 86.6595C22.5444 86.7295 22.7684 86.8555 23.0345 86.9396C23.5386 87.1076 24.2387 87.4857 25.3449 88.1998C25.695 88.4239 26.4371 88.8439 26.9973 89.11C27.5434 89.376 28.0054 89.6561 28.0054 89.7261C28.0054 89.7961 28.1455 89.8801 28.3275 89.9361C28.4955 89.9782 28.9716 90.2302 29.3777 90.5103C29.7978 90.7763 30.1899 91.0004 30.2599 91.0004C30.3299 91.0004 30.3859 91.0704 30.3859 91.1544C30.3859 91.2244 30.4419 91.2524 30.5259 91.2104C30.61 91.1684 30.666 91.1964 30.666 91.2664C30.666 91.3504 30.764 91.4204 30.876 91.4204C30.988 91.4204 31.086 91.4764 31.086 91.5465C31.086 91.6165 31.2681 91.7145 31.4781 91.7705C31.7022 91.8125 32.4023 92.2046 33.0604 92.6247C33.7046 93.0588 34.5867 93.5629 35.0068 93.7729C35.4269 93.9689 35.861 94.221 35.959 94.319C36.057 94.417 36.211 94.501 36.2811 94.501C36.3651 94.501 36.6871 94.6831 37.0092 94.9071C37.3313 95.1172 37.8914 95.4392 38.2694 95.5932C38.6335 95.7473 38.9276 95.9433 38.9276 96.0133C38.9276 96.0693 39.2776 96.2794 39.6977 96.4754C40.1178 96.6575 40.4679 96.8675 40.4679 96.9235C40.4679 96.9795 40.7339 97.1616 41.07 97.3156C41.3921 97.4696 41.8261 97.6937 42.0362 97.8337C42.4002 98.0577 42.4423 98.0577 42.8063 97.8197C43.0304 97.6797 43.3104 97.5256 43.4505 97.4836C43.5765 97.4416 43.6885 97.3576 43.6885 97.2876C43.6885 97.2176 43.7725 97.1616 43.8705 97.1616C43.9826 97.1616 44.2346 97.0075 44.4586 96.8255C44.6687 96.6435 45.0888 96.4194 45.3828 96.3354C45.6769 96.2374 45.9289 96.1114 45.9289 96.0413C45.9289 95.9713 46.321 95.7193 46.8111 95.4812C47.2872 95.2292 47.7773 94.9491 47.8893 94.8511C48.0013 94.7531 48.2394 94.6271 48.4214 94.5851C48.5895 94.529 48.7295 94.417 48.7295 94.347C48.7295 94.263 48.7995 94.249 48.8695 94.291C48.9535 94.333 49.0095 94.319 49.0095 94.235C49.0095 94.165 49.3736 93.9409 49.8077 93.7309C50.2418 93.5348 51.0259 93.0868 51.544 92.7507C52.0761 92.4006 52.8603 91.9525 53.3084 91.7565C53.7565 91.5465 54.1625 91.3224 54.2045 91.2664C54.2746 91.1404 54.8767 90.7903 56.2629 90.0902C56.655 89.8801 56.9911 89.6421 56.9911 89.5721C56.9911 89.5021 57.0611 89.4881 57.1311 89.5301C57.2151 89.5721 57.2711 89.5581 57.2711 89.5021C57.2711 89.4321 57.5232 89.278 57.8172 89.152C58.1253 89.012 58.7414 88.6759 59.1895 88.3818C59.6376 88.0878 60.0437 87.8777 60.1137 87.8918C60.1697 87.9058 60.2117 87.8777 60.2117 87.8077C60.2117 87.6957 60.6038 87.4857 61.794 86.9396C62.1581 86.7715 62.4521 86.5755 62.4521 86.5055C62.4521 86.4355 62.5502 86.3795 62.6622 86.3795C62.7742 86.3795 62.8722 86.3234 62.8722 86.2534C62.8722 86.1834 63.3343 85.9034 63.9084 85.6233C64.4825 85.3573 65.4767 84.7831 66.1209 84.3771C66.751 83.957 67.5211 83.5369 67.8152 83.4529C68.0952 83.3549 68.3333 83.2148 68.3333 83.1448C68.3333 83.0608 68.5433 82.9208 68.7954 82.8088C69.0474 82.6967 69.6075 82.3887 70.0136 82.1226C70.4337 81.8426 70.8258 81.6185 70.8958 81.6185C70.9518 81.6185 71.1198 81.5065 71.2739 81.3665C71.4279 81.2265 71.778 81.0304 72.072 80.9324C72.3661 80.8204 73.1082 80.4143 73.7243 80.0082C74.3545 79.6021 75.1666 79.126 75.5447 78.944C75.9368 78.762 76.2728 78.5939 76.3148 78.5379C76.4829 78.3559 77.9952 77.4737 79.0734 76.9416C79.2554 76.8576 79.3954 76.7456 79.3954 76.6756C79.3954 76.6196 79.4655 76.5776 79.5635 76.5776C79.6475 76.5776 79.8295 76.4795 79.9556 76.3675C80.0816 76.2555 80.6977 75.8914 81.3278 75.5554C81.9579 75.2333 83.0081 74.6592 83.6663 74.2811L84.8565 73.581L84.8285 48.9502L84.7865 24.3194L84.2264 24.0113C83.9183 23.8573 83.3862 23.5492 83.0361 23.3532C81.9859 22.7371 81.3278 22.359 80.5857 21.9809C80.2076 21.7709 79.5215 21.3788 79.0874 21.0848C78.6533 20.8047 78.1072 20.4966 77.8971 20.3986C77.6871 20.3006 77.155 20.0065 76.7349 19.7265C76.3148 19.4464 75.6427 19.0544 75.2506 18.8443C74.8586 18.6483 74.2985 18.3262 74.0044 18.1302C73.7103 17.9341 73.3883 17.7661 73.2903 17.7661C73.1782 17.7661 73.0942 17.7101 73.0942 17.6401C73.0942 17.5701 72.7301 17.332 72.2961 17.136C71.848 16.9259 71.1758 16.5479 70.7838 16.2958C70.4057 16.0438 69.7056 15.6377 69.2435 15.3857C68.7814 15.1336 68.2493 14.8255 68.0532 14.6995C67.8572 14.5595 67.5211 14.3774 67.2831 14.2794C67.059 14.1814 66.4849 13.8453 66.0368 13.5373C65.5748 13.2292 64.6926 12.7111 64.0765 12.4031C63.4463 12.095 62.7462 11.7029 62.5082 11.5209C62.2701 11.3389 61.682 11.0028 61.2059 10.7647C60.7438 10.5267 60.3517 10.2607 60.3517 10.1906C60.3517 10.1066 60.2957 10.0926 60.2117 10.1346C60.1417 10.1766 60.0717 10.1766 60.0717 10.1066C60.0717 10.0506 59.7916 9.86858 59.4416 9.71455C59.0915 9.56052 58.8114 9.37848 58.8114 9.30846C58.8114 9.23845 58.7694 9.21045 58.7274 9.26646C58.6854 9.30846 58.5174 9.22445 58.3493 9.07042C58.1953 8.93039 57.9573 8.80437 57.8312 8.80437C57.7052 8.80437 57.4532 8.67834 57.2711 8.52431C57.0891 8.35628 56.585 8.06223 56.1509 7.83818C55.7308 7.61414 55.0027 7.18005 54.5546 6.85799C54.0925 6.54993 53.6584 6.28387 53.5744 6.28387C53.3504 6.28387 52.0901 5.59774 51.656 5.24767C51.46 5.07964 50.8019 4.70157 50.1858 4.39351C49.5836 4.08545 49.0375 3.76339 48.9815 3.69337C48.9115 3.59535 48.8695 3.59535 48.8695 3.69337C48.8695 3.76339 48.7855 3.73538 48.6875 3.62336C48.5194 3.41332 48.1274 3.18928 46.9091 2.54515C46.5731 2.36311 46.265 2.16708 46.209 2.11107C46.069 1.91502 45.4388 1.56496 44.9207 1.39693C44.6267 1.2989 44.3886 1.15888 44.3886 1.08887C44.3886 1.00485 44.1226 0.822815 43.8005 0.668785C43.4645 0.528755 43.0724 0.304718 42.9324 0.192696C42.6103 -0.0593567 42.3442 -0.0593567 41.8681 0.164688ZM59.7216 18.2562C69.0474 23.6333 76.903 28.1701 77.183 28.3242L77.7151 28.6182L77.6731 48.9922L77.6451 69.3521L74.2144 71.3265C72.3241 72.4187 69.5235 74.0291 67.9832 74.9112C66.4429 75.8074 62.1021 78.3139 58.3213 80.4983C43.8565 88.8579 42.5123 89.6141 42.3582 89.5441C42.2602 89.5161 40.1738 88.3258 37.7233 86.8976C35.2589 85.4833 27.7394 81.1424 21.0041 77.2497C14.2688 73.3569 8.44364 69.9823 8.05157 69.7582L7.35143 69.3521L7.30942 48.9782L7.28142 28.6042L16.0611 23.5352C20.9061 20.7487 28.7616 16.1978 33.5365 13.4253C38.6055 10.4847 42.3302 8.41229 42.4983 8.4403C42.6523 8.4543 50.4098 12.8792 59.7216 18.2562Z" fill="#C96000"/>
<path d="M34.9228 23.8747V26.5352H34.3347C33.9986 26.5492 33.0184 26.5632 32.1363 26.5772L30.54 26.6052L30.1759 27.2353C29.9798 27.5854 29.3357 28.6776 28.7616 29.6578C28.1875 30.638 27.5154 31.7862 27.2913 32.2063C27.0533 32.6264 26.7872 33.0464 26.6892 33.1445C26.5912 33.2425 26.5212 33.3545 26.5212 33.4105C26.5212 33.4665 25.9891 34.4047 25.3309 35.5109C24.6728 36.6031 24.1407 37.5273 24.1407 37.5553C24.1407 37.5833 23.9307 37.9334 23.6786 38.3395C23.4266 38.7456 23.1745 39.1656 23.1045 39.2777C23.0485 39.3897 22.9365 39.6137 22.8385 39.7678C22.7404 39.9218 22.4884 40.3559 22.2643 40.7479C22.0403 41.126 21.5222 41.9942 21.1021 42.6663C20.696 43.3384 20.36 43.9266 20.36 43.9686C20.36 44.0106 20.2059 44.3046 19.9959 44.6127C19.7999 44.9208 19.5338 45.3828 19.3938 45.6209C19.2538 45.8729 18.6516 46.8811 18.0495 47.8893L16.9713 49.7097L17.2094 50.1298C17.3494 50.3538 17.5874 50.7739 17.7415 51.0399C17.8955 51.306 18.2736 52.0061 18.5816 52.5802C18.8897 53.1544 19.1697 53.6585 19.2258 53.7005C19.2678 53.7425 19.4498 54.0225 19.6038 54.3306C19.7719 54.6386 20.1499 55.3248 20.458 55.8709C20.7661 56.403 21.1721 57.1311 21.3682 57.4812C21.5642 57.8313 21.8583 58.3494 22.0263 58.6434C23.6366 61.5 25.443 64.7066 25.821 65.3927C26.0731 65.8548 26.3251 66.2889 26.3811 66.3729C26.4372 66.4429 26.7172 66.947 27.0113 67.4931C27.3053 68.0253 27.6134 68.5714 27.7114 68.6834C27.8094 68.7954 28.2295 69.5515 28.6776 70.3637C29.1117 71.1759 29.6018 72.086 29.7838 72.3801L30.1059 72.9262L32.4023 72.9682C33.6766 72.9822 34.7548 72.9962 34.8248 73.0102C34.8808 73.0242 34.9228 74.0884 34.9228 75.4047V77.7851H36.9532H38.9836V75.4047V73.0102L40.7059 73.0802C41.6441 73.1082 43.0304 73.1502 43.7865 73.1502L45.1448 73.1642V75.4747V77.7851H47.1752H49.2056V75.4747V73.1642H52.9863C55.5208 73.1642 56.7671 73.1222 56.7671 73.0242C56.7671 72.9402 56.445 72.3801 56.0389 71.792C55.0307 70.2937 50.3398 63.7824 50.0037 63.4044L49.7237 63.0963L42.3302 63.0823C38.2555 63.0823 34.8528 63.0403 34.7408 62.9983C34.6287 62.9563 34.3487 62.5362 34.0966 62.0601C33.8446 61.584 33.5925 61.0939 33.5225 60.9819C32.9904 60.1137 32.2623 58.8395 32.2623 58.7975C32.2623 58.7694 31.9262 58.1673 31.5341 57.4672C30.4699 55.6328 30.2599 55.2688 29.6998 54.2606C29.4337 53.7565 28.7896 52.6223 28.2715 51.7401C27.1793 49.8217 27.1093 49.6397 27.4594 49.1216C27.8794 48.4774 28.0615 48.1834 28.1595 47.9593C28.2155 47.8473 28.4676 47.4272 28.7196 47.0212C28.9716 46.6151 29.1817 46.265 29.1817 46.223C29.1817 46.181 29.4477 45.7189 29.7558 45.2008C30.0779 44.6687 30.4699 44.0246 30.638 43.7445C30.806 43.4645 31.5341 42.2182 32.2623 40.972C32.9904 39.7257 33.7466 38.4375 33.9286 38.1154C34.1106 37.7934 34.4187 37.2893 34.6007 36.9952L34.9368 36.4631L42.3443 36.4771C46.419 36.4911 49.8217 36.4631 49.8917 36.4071C50.0878 36.2951 56.7951 26.9413 56.7391 26.8712C56.711 26.8432 55.0027 26.8152 52.9443 26.7872L49.2056 26.7592V23.9867V21.2141H47.1752H45.1448V23.9447V26.6892L42.0642 26.6472L38.9836 26.6052V23.9167V21.2141H36.9532H34.9228V23.8747Z" fill="#C96000"/>
<path d="M36.5823 40.168C36.5123 40.2661 36.1202 40.9242 35.7281 41.6243L35 42.8986V50.026V57.1533L35.8122 58.5536L36.6243 59.9539L37.8426 59.9959L39.0608 60.0379V50.012V40H37.8846C37.1144 40 36.6663 40.056 36.5823 40.168Z" fill="#C96000"/>
<path d="M45 50.012V60.0239H47.0304H49.0608V50.012V40H47.0304H45V50.012Z" fill="#C96000"/>
</svg>
